<svg xmlns="http://www.w3.org/2000/svg" viewBox="0 0 520 620" role="img" aria-label="胸腹部常见穴位大致区域示意图"><rect width="520" height="620" rx="32" fill="#FAF7F0"/><g fill="none" stroke="#1F4D3A" stroke-linecap="round" stroke-linejoin="round"><path d="M180 96c50-30 110-30 160 0M160 112c-30 88-24 230 22 336 18 42 52 70 78 70s60-28 78-70c46-106 52-248 22-336" stroke-width="8"/><path d="M260 92v430" stroke="#C8A96A" stroke-width="4"/><path d="M192 252c44 18 92 18 136 0M184 320c50 18 102 18 152 0" stroke="#1F4D3A" stroke-width="3" opacity=".35"/></g><g fill="#C8A96A" stroke="#fff" stroke-width="3"><circle cx="260" cy="190" r="10"/><circle cx="260" cy="278" r="10"/><circle cx="224" cy="318" r="10"/><circle cx="296" cy="318" r="10"/><circle cx="260" cy="392" r="10"/><circle cx="260" cy="430" r="10"/></g><g font-family="Arial,'Noto Sans SC',sans-serif" font-size="18" fill="#1F4D3A" font-weight="700"><text x="310" y="196">膻中 CV17</text><text x="310" y="284">中脘 CV12</text><text x="76" y="324">天枢 ST25</text><text x="310" y="324">天枢 ST25</text><text x="310" y="398">气海 CV6</text><text x="310" y="436">关元 CV4</text></g><text x="260" y="586" text-anchor="middle" font-family="Arial,'Noto Sans SC',sans-serif" font-size="16" fill="#1C1C1C" opacity=".65">胸腹部不适需谨慎，剧烈或不明原因不适请及时就医</text></svg>
