<svg xmlns="http://www.w3.org/2000/svg" viewBox="0 0 520 620" role="img" aria-label="指腹轻柔按揉手势示意图"><rect width="520" height="620" rx="32" fill="#FAF7F0"/><g fill="none" stroke="#1F4D3A" stroke-linecap="round" stroke-linejoin="round" stroke-width="8"><path d="M150 410c44-64 120-98 220-92"/><path d="M178 408c34 42 86 70 156 84 44 8 78-8 94-42"/><path d="M208 312c-12-62-8-112 12-150 12-24 42-18 42 10v120"/><path d="M264 292V122c0-34 44-34 44 0v178"/><path d="M310 302V158c0-32 42-32 42 0v154"/><path d="M354 320V204c0-30 40-30 40 0v142"/></g><circle cx="210" cy="410" r="18" fill="#C8A96A" stroke="#fff" stroke-width="4"/><path d="M180 444c28 26 60 26 88 0" fill="none" stroke="#C8A96A" stroke-width="5" stroke-linecap="round"/><g font-family="Arial,'Noto Sans SC',sans-serif" fill="#1F4D3A"><text x="260" y="76" text-anchor="middle" font-size="24" font-weight="700">用指腹轻柔按揉</text><text x="260" y="530" text-anchor="middle" font-size="18" font-weight="700">力度以舒适或轻微酸胀为度</text><text x="260" y="562" text-anchor="middle" font-size="16" fill="#1C1C1C" opacity=".65">不追求疼痛感，不做强刺激</text></g></svg>
