<svg xmlns="http://www.w3.org/2000/svg" viewBox="0 0 520 620" role="img" aria-label="前臂手部常见穴位大致区域示意图"><rect width="520" height="620" rx="32" fill="#FAF7F0"/><g fill="none" stroke="#1F4D3A" stroke-linecap="round" stroke-linejoin="round" stroke-width="8"><path d="M260 74c-36 64-54 142-52 230 2 74 24 132 64 174"/><path d="M306 92c-18 72-22 136-12 198 12 78 34 132 66 178"/><path d="M270 478c-30 22-48 42-58 68"/><path d="M296 486c-18 30-26 58-28 88"/><path d="M322 490c-4 30-2 58 8 84"/><path d="M348 488c14 28 26 54 34 82"/></g><path d="M236 134c20 92 24 196 18 310" fill="none" stroke="#C8A96A" stroke-width="4" stroke-linecap="round"/><path d="M300 150c14 82 28 168 48 270" fill="none" stroke="#C8A96A" stroke-width="4" stroke-linecap="round"/><g fill="#C8A96A" stroke="#fff" stroke-width="3"><circle cx="248" cy="274" r="10"/><circle cx="250" cy="404" r="10"/><circle cx="316" cy="188" r="10"/><circle cx="292" cy="520" r="10"/></g><g font-family="Arial,'Noto Sans SC',sans-serif" font-size="18" fill="#1F4D3A" font-weight="700"><text x="72" y="278">内关 PC6</text><text x="68" y="408">神门 HT7</text><text x="332" y="194">曲池 LI11</text><text x="306" y="528">合谷 LI4</text></g><text x="260" y="586" text-anchor="middle" font-family="Arial,'Noto Sans SC',sans-serif" font-size="16" fill="#1C1C1C" opacity=".65">手臂、手腕和手背区域示意，不作为精确取穴依据</text></svg>
