<svg xmlns="http://www.w3.org/2000/svg" viewBox="0 0 520 620" role="img" aria-label="头颈肩常见穴位大致区域示意图"><rect width="520" height="620" rx="32" fill="#FAF7F0"/><g fill="none" stroke="#1F4D3A" stroke-linecap="round" stroke-linejoin="round" stroke-width="8"><circle cx="260" cy="134" r="70"/><path d="M220 206v68M300 206v68M176 280c54-28 114-28 168 0M170 282c-22 44-38 88-48 132M350 282c22 44 38 88 48 132M132 416c84 34 172 34 256 0"/></g><path d="M260 62v140M218 216c-20 28-34 58-44 92M302 216c20 28 34 58 44 92" fill="none" stroke="#C8A96A" stroke-width="4" stroke-linecap="round"/><g fill="#C8A96A" stroke="#fff" stroke-width="3"><circle cx="260" cy="66" r="10"/><circle cx="214" cy="214" r="10"/><circle cx="306" cy="214" r="10"/><circle cx="176" cy="326" r="10"/><circle cx="344" cy="326" r="10"/></g><g font-family="Arial,'Noto Sans SC',sans-serif" font-size="18" fill="#1F4D3A" font-weight="700"><text x="286" y="70">百会 GV20</text><text x="70" y="218">风池 GB20</text><text x="324" y="218">风池 GB20</text><text x="74" y="332">肩井 GB21</text><text x="360" y="332">肩井 GB21</text></g><text x="260" y="586" text-anchor="middle" font-family="Arial,'Noto Sans SC',sans-serif" font-size="16" fill="#1C1C1C" opacity=".65">颈部和肩部不要强力按压，头痛突发或严重应就医</text></svg>
