<svg xmlns="http://www.w3.org/2000/svg" viewBox="0 0 520 620" role="img" aria-label="小腿足部常见穴位大致区域示意图"><rect width="520" height="620" rx="32" fill="#FAF7F0"/><g fill="none" stroke="#1F4D3A" stroke-linecap="round" stroke-linejoin="round" stroke-width="8"><path d="M206 70c-8 78-10 160-4 246 5 70-14 138-34 210"/><path d="M314 70c8 78 10 160 4 246-5 70 14 138 34 210"/><path d="M166 530c52 14 88 15 126 5"/><path d="M228 530c42 20 82 22 128 4"/></g><path d="M192 122c72 80 36 210 4 330" fill="none" stroke="#C8A96A" stroke-width="4" stroke-linecap="round"/><path d="M326 124c-38 92-38 220-2 328" fill="none" stroke="#C8A96A" stroke-width="4" stroke-linecap="round"/><g fill="#C8A96A" stroke="#fff" stroke-width="3"><circle cx="198" cy="214" r="10"/><circle cx="318" cy="260" r="10"/><circle cx="205" cy="300" r="10"/><circle cx="196" cy="438" r="10"/><circle cx="314" cy="452" r="10"/><circle cx="170" cy="520" r="10"/><circle cx="350" cy="520" r="10"/></g><g font-family="Arial,'Noto Sans SC',sans-serif" font-size="18" fill="#1F4D3A" font-weight="700"><text x="78" y="220">足三里 ST36</text><text x="338" y="264">三阴交 SP6</text><text x="70" y="304">阴陵泉 SP9</text><text x="62" y="442">委中 BL40</text><text x="334" y="456">太溪 KI3</text><text x="58" y="548">公孙 / 太冲</text><text x="348" y="548">昆仑 BL60</text></g><text x="260" y="586" text-anchor="middle" font-family="Arial,'Noto Sans SC',sans-serif" font-size="16" fill="#1C1C1C" opacity=".65">金色点为大致区域，具体定位应由专业人士完成</text></svg>
