<svg xmlns="http://www.w3.org/2000/svg" viewBox="0 0 520 620" role="img" aria-label="现代化经络概念线稿示意图"><rect width="520" height="620" rx="32" fill="#FAF7F0"/><g fill="none" stroke="#1F4D3A" stroke-linecap="round" stroke-linejoin="round"><circle cx="260" cy="82" r="34" stroke-width="6"/><path d="M260 116v166M188 150c42-24 102-24 144 0M210 162c-28 68-42 128-52 206M310 162c28 68 42 128 52 206M232 282c-18 82-32 166-39 254M288 282c18 82 32 166 39 254" stroke-width="7"/><path d="M238 125c-26 62-34 112-28 168 5 52 4 102-12 156" stroke="#C8A96A" stroke-width="3"/><path d="M282 125c26 62 34 112 28 168-5 52-4 102 12 156" stroke="#C8A96A" stroke-width="3"/><path d="M260 116c0 70-2 142 0 212 1 66 0 130-12 198" stroke="#C8A96A" stroke-width="3"/><path d="M180 154c38 48 52 96 44 148-8 54-16 108-20 164" stroke="#C8A96A" stroke-width="3"/><path d="M340 154c-38 48-52 96-44 148 8 54 16 108 20 164" stroke="#C8A96A" stroke-width="3"/></g><g fill="#C8A96A" stroke="#fff" stroke-width="3"><circle cx="260" cy="72" r="8"/><circle cx="260" cy="214" r="8"/><circle cx="260" cy="254" r="8"/><circle cx="260" cy="302" r="8"/><circle cx="210" cy="138" r="8"/><circle cx="310" cy="138" r="8"/><circle cx="198" cy="402" r="8"/><circle cx="322" cy="402" r="8"/><circle cx="193" cy="500" r="8"/><circle cx="327" cy="500" r="8"/></g><g font-family="Arial,'Noto Sans SC',sans-serif" font-size="18" fill="#1F4D3A" font-weight="700"><text x="332" y="78">百会</text><text x="316" y="218">中脘</text><text x="318" y="258">天枢</text><text x="318" y="306">气海 / 关元</text><text x="92" y="142">肩颈区</text><text x="348" y="142">手臂区</text><text x="78" y="405">小腿区</text><text x="348" y="405">小腿区</text><text x="80" y="505">足部区</text><text x="350" y="505">足部区</text></g><text x="260" y="586" text-anchor="middle" font-family="Arial,'Noto Sans SC',sans-serif" font-size="16" fill="#1C1C1C" opacity=".65">只展示 MVP 常见区域与代表点，非专业取穴图</text></svg>
