<svg xmlns="http://www.w3.org/2000/svg" viewBox="0 0 360 520" role="img" aria-label="简洁人体部位线稿"><rect width="360" height="520" fill="none"/><circle cx="180" cy="74" r="38" fill="none" stroke="#1F4D3A" stroke-width="6"/><path d="M180 112v150M105 150c40-26 110-26 150 0M130 160c-20 58-38 120-54 188M230 160c20 58 38 120 54 188M155 262c-16 76-27 142-32 212M205 262c16 76 27 142 32 212" fill="none" stroke="#1F4D3A" stroke-width="7" stroke-linecap="round"/><g fill="#C8A96A"><circle cx="200" cy="212" r="7"/><circle cx="147" cy="338" r="7"/><circle cx="130" cy="420" r="7"/><circle cx="96" cy="288" r="7"/><circle cx="238" cy="302" r="7"/></g><path d="M70 468h220" stroke="#E6EFE8" stroke-width="12" stroke-linecap="round"/></svg>
